<svg xmlns="http://www.w3.org/2000/svg" viewBox="68 40 164 192">
    <circle cx="150" cy="150" r="80" fill="#d2b48c" stroke="#000" stroke-width="2"/>
    <polygon points="95,100 100,40 140,90" fill="#d2b48c" stroke="#000" stroke-width="1"/>
    <polygon points="205,100 200,40 160,90" fill="#d2b48c" stroke="#000" stroke-width="1"/>
    <circle cx="125" cy="140" r="8" fill="#000"/>
    <circle cx="175" cy="140" r="8" fill="#000"/>
    <circle cx="125" cy="138" r="3" fill="#fff"/>
    <circle cx="175" cy="138" r="3" fill="#fff"/>
    <path d="M140 160 Q150 170 160 160" stroke="#000" stroke-width="2" fill="none"/>
    <path d="M150 170 Q140 180 130 175" stroke="#000" stroke-width="2" fill="none"/>
    <path d="M150 170 Q160 180 170 175" stroke="#000" stroke-width="2" fill="none"/>
    <line x1="110" y1="155" x2="80" y2="150" stroke="#000" stroke-width="2"/>
    <line x1="110" y1="165" x2="80" y2="165" stroke="#000" stroke-width="2"/>
    <line x1="110" y1="175" x2="80" y2="180" stroke="#000" stroke-width="2"/>
    <line x1="190" y1="155" x2="220" y2="150" stroke="#000" stroke-width="2"/>
    <line x1="190" y1="165" x2="220" y2="165" stroke="#000" stroke-width="2"/>
    <line x1="190" y1="175" x2="220" y2="180" stroke="#000" stroke-width="2"/>
</svg>
